<?xml version="1.0" standalone="no"?><!DOCTYPE svg PUBLIC "-//W3C//DTD SVG 1.1//EN" "http://www.w3.org/Graphics/SVG/1.1/DTD/svg11.dtd"><svg t="1591326030818" class="icon" viewBox="0 0 1024 1024" version="1.1" xmlns="http://www.w3.org/2000/svg" p-id="1184" xmlns:xlink="http://www.w3.org/1999/xlink" width="200" height="200"><defs><style type="text/css"></style></defs><path d="M423.506173 195.950617H259.160494a69.530864 69.530864 0 0 0-69.530864 69.530864v164.345679a69.530864 69.530864 0 0 0 69.530864 69.530865h164.345679a69.530864 69.530864 0 0 0 69.530864-69.530865V265.481481a69.530864 69.530864 0 0 0-69.530864-69.530864z m-164.345679 37.925926h164.345679a31.604938 31.604938 0 0 1 31.604938 31.604938v164.345679a31.604938 31.604938 0 0 1-31.604938 31.604939H259.160494a31.604938 31.604938 0 0 1-31.604938-31.604939V265.481481a31.604938 31.604938 0 0 1 31.604938-31.604938zM423.506173 537.283951H259.160494a69.530864 69.530864 0 0 0-69.530864 69.530864v164.345679a69.530864 69.530864 0 0 0 69.530864 69.530864h164.345679a69.530864 69.530864 0 0 0 69.530864-69.530864V606.814815a69.530864 69.530864 0 0 0-69.530864-69.530864z m-164.345679 37.925926h164.345679a31.604938 31.604938 0 0 1 31.604938 31.604938v164.345679a31.604938 31.604938 0 0 1-31.604938 31.604938H259.160494a31.604938 31.604938 0 0 1-31.604938-31.604938V606.814815a31.604938 31.604938 0 0 1 31.604938-31.604938zM764.839506 537.283951H600.493827a69.530864 69.530864 0 0 0-69.530864 69.530864v164.345679a69.530864 69.530864 0 0 0 69.530864 69.530864h164.345679a69.530864 69.530864 0 0 0 69.530864-69.530864V606.814815a69.530864 69.530864 0 0 0-69.530864-69.530864z m-164.345679 37.925926h164.345679a31.604938 31.604938 0 0 1 31.604938 31.604938v164.345679a31.604938 31.604938 0 0 1-31.604938 31.604938H600.493827a31.604938 31.604938 0 0 1-31.604938-31.604938V606.814815a31.604938 31.604938 0 0 1 31.604938-31.604938zM682.666667 208.592593c-83.77837 0-151.703704 67.925333-151.703704 151.703703s67.925333 151.703704 151.703704 151.703704 151.703704-67.925333 151.703703-151.703704-67.925333-151.703704-151.703703-151.703703z m0 37.925926a113.777778 113.777778 0 1 1 0 227.555555 113.777778 113.777778 0 0 1 0-227.555555z" fill="#1296db" p-id="1185"></path></svg>